<svg width="75" height="25" viewBox="0 0 75 25" fill="none" xmlns="http://www.w3.org/2000/svg">
<path d="M5.51501 12.4661C5.51501 11.9441 5.57803 11.4221 5.69621 10.9079H3.28537C4.04171 6.49017 7.93373 3.11653 12.6057 3.11653C15.2135 3.11653 17.5771 4.16836 19.2868 5.85907L21.5164 3.65413C19.2316 1.39465 16.0802 0 12.6057 0C6.18469 0 0.874522 4.76829 0.094543 10.9079C0.0315143 11.4221 0 11.9363 0 12.4661C0 12.9959 0.0315143 13.5101 0.094543 14.0244H3.27749H5.68833C5.57803 13.5101 5.51501 12.9881 5.51501 12.4661Z" fill="url(#paint0_linear)"/>
<path d="M25.197 12.5339C25.197 12.004 25.1655 11.4898 25.1024 10.9756H21.9183H19.5066C19.6248 11.4898 19.6879 12.0118 19.6879 12.5339C19.6879 13.0559 19.6248 13.5779 19.5145 14.0921H21.9262C21.1696 18.5098 17.2761 21.8834 12.6024 21.8834C9.99365 21.8834 7.62921 20.8316 5.91893 19.1409L3.68848 21.3458C5.9741 23.6053 9.12669 25 12.6024 25C16.3619 25 19.7509 23.3638 22.0602 20.7693C23.6916 18.9383 24.795 16.6321 25.1103 14.0921C25.1734 13.5935 25.2049 13.0948 25.2049 12.5806C25.197 12.565 25.197 12.5494 25.197 12.5339Z" fill="url(#paint1_linear)"/>
<path d="M9.79449 11.3036C10.3512 10.3813 11.4002 9.7563 12.6024 9.7563C13.4899 9.7563 14.2968 10.0993 14.8858 10.6481L17.1692 8.49105C15.9993 7.39349 14.3856 6.70752 12.6024 6.70752C9.59277 6.70752 7.05922 8.66636 6.34918 11.3036C6.22008 11.7837 6.14746 12.2868 6.14746 12.8051C6.14746 13.3386 6.22008 13.8569 6.35725 14.3523H15.378C14.8132 15.2517 13.7804 15.8539 12.5943 15.8539C11.7068 15.8539 10.8999 15.5109 10.3109 14.9621L8.02746 17.1191C9.20548 18.2167 10.8192 18.9026 12.6024 18.9026C15.5958 18.9026 18.1213 16.9667 18.8475 14.3523C18.9847 13.8569 19.0573 13.3386 19.0573 12.8051C19.0573 12.2868 18.9847 11.7837 18.8556 11.3036H9.79449Z" fill="white"/>
<path d="M42.6203 8.22843C42.5398 8.14657 42.3903 8.03547 42.1718 7.89513C41.9648 7.7548 41.706 7.62031 41.3955 7.49167C41.0965 7.35133 40.7688 7.23439 40.4122 7.14083C40.0557 7.04727 39.6935 7.0005 39.3255 7.0005C38.6699 7.0005 38.1812 7.12329 37.8591 7.36888C37.5371 7.61446 37.3761 7.95945 37.3761 8.40385C37.3761 8.66113 37.4336 8.87748 37.5486 9.0529C37.6751 9.21662 37.8534 9.3628 38.0834 9.49144C38.3134 9.62008 38.6009 9.73703 38.9459 9.84228C39.3025 9.94753 39.7107 10.0586 40.1707 10.1756C40.7688 10.3393 41.3093 10.5147 41.7923 10.7018C42.2868 10.8889 42.7008 11.1228 43.0343 11.4035C43.3794 11.6842 43.6439 12.0233 43.8279 12.4209C44.0119 12.8069 44.1039 13.2863 44.1039 13.8594C44.1039 14.526 43.9774 15.099 43.7244 15.5785C43.4829 16.0463 43.1493 16.4263 42.7238 16.7187C42.3098 17.0111 41.8268 17.2274 41.2748 17.3677C40.7343 17.4964 40.165 17.5607 39.567 17.5607C38.6469 17.5607 37.7384 17.4204 36.8414 17.1397C35.9443 16.859 35.1393 16.4614 34.4263 15.9469L35.4786 13.8594C35.5821 13.9646 35.7661 14.105 36.0306 14.2804C36.3066 14.4441 36.6286 14.6137 36.9966 14.7891C37.3646 14.9528 37.7729 15.0931 38.2214 15.2101C38.6699 15.327 39.1299 15.3855 39.6015 15.3855C40.9125 15.3855 41.568 14.9587 41.568 14.105C41.568 13.836 41.4933 13.6079 41.3438 13.4208C41.1943 13.2337 40.9815 13.07 40.7055 12.9296C40.4295 12.7893 40.096 12.6607 39.705 12.5437C39.314 12.4268 38.8769 12.2981 38.3939 12.1578C37.8074 11.9941 37.2956 11.8187 36.8586 11.6316C36.4331 11.4327 36.0766 11.2047 35.7891 10.9474C35.5016 10.6784 35.2831 10.3744 35.1335 10.0352C34.9955 9.6844 34.9265 9.26925 34.9265 8.78977C34.9265 8.15826 35.0415 7.59692 35.2716 7.10575C35.5016 6.61458 35.8178 6.20526 36.2203 5.87782C36.6344 5.55037 37.1116 5.30478 37.6521 5.14106C38.1927 4.96564 38.7734 4.87793 39.3945 4.87793C40.257 4.87793 41.0505 5.01826 41.775 5.29893C42.4996 5.56791 43.1321 5.88951 43.6726 6.26374L42.6203 8.22843Z" fill="white"/>
<path d="M45.3508 11.7368C45.3508 11.1287 45.4658 10.5615 45.6958 10.0352C45.9258 9.50898 46.2363 9.0529 46.6273 8.66697C47.0298 8.26936 47.5014 7.95945 48.0419 7.73725C48.5939 7.51506 49.1862 7.40396 49.8187 7.40396C50.5087 7.40396 51.1297 7.5326 51.6818 7.78988C52.2453 8.04716 52.7226 8.42139 53.1136 8.91256C53.5046 9.40373 53.8036 10.006 54.0106 10.7194C54.2291 11.421 54.3384 12.2221 54.3384 13.1226C54.3384 14.257 54.2234 15.2627 53.9934 16.1398C53.7748 17.0052 53.4586 17.7303 53.0446 18.315C52.642 18.9114 52.1475 19.3617 51.561 19.6657C50.9745 19.9698 50.319 20.1218 49.5944 20.1218C48.8239 20.1218 48.1109 19.9522 47.4554 19.6131C46.7998 19.274 46.2478 18.7886 45.7993 18.1571L47.1276 16.6836C47.4036 17.128 47.7601 17.473 48.1971 17.7186C48.6342 17.9642 49.1114 18.087 49.6289 18.087C50.3995 18.087 51.009 17.7771 51.4575 17.1572C51.9175 16.5374 52.159 15.6603 52.182 14.526C51.952 14.947 51.6128 15.2803 51.1642 15.5258C50.7157 15.7714 50.1982 15.8942 49.6117 15.8942C49.0022 15.8942 48.4386 15.789 47.9211 15.5785C47.4036 15.368 46.9551 15.0756 46.5756 14.7014C46.1961 14.3272 45.897 13.8886 45.6785 13.3857C45.46 12.8712 45.3508 12.3215 45.3508 11.7368ZM49.8187 9.38619C49.5082 9.38619 49.2149 9.45051 48.9389 9.57915C48.6744 9.6961 48.4386 9.86567 48.2316 10.0879C48.0246 10.2984 47.8579 10.5498 47.7314 10.8422C47.6164 11.1228 47.5589 11.421 47.5589 11.7368C47.5589 12.0526 47.6164 12.3508 47.7314 12.6314C47.8579 12.9004 48.0189 13.1402 48.2144 13.3507C48.4214 13.5612 48.6629 13.7249 48.9389 13.8418C49.2149 13.9588 49.5082 14.0172 49.8187 14.0172C50.1292 14.0172 50.4225 13.9588 50.6985 13.8418C50.9745 13.7249 51.2102 13.5612 51.4058 13.3507C51.6128 13.1402 51.7738 12.9004 51.8888 12.6314C52.0153 12.3508 52.0785 12.0526 52.0785 11.7368C52.0785 11.421 52.0153 11.1228 51.8888 10.8422C51.7738 10.5498 51.6128 10.2984 51.4058 10.0879C51.1987 9.87736 50.9572 9.70779 50.6812 9.57915C50.4167 9.45051 50.1292 9.38619 49.8187 9.38619Z" fill="white"/>
<path d="M55.6816 11.7368C55.6816 11.1287 55.7966 10.5615 56.0266 10.0352C56.2566 9.50898 56.5672 9.0529 56.9582 8.66697C57.3607 8.26936 57.8322 7.95945 58.3727 7.73725C58.9247 7.51506 59.517 7.40396 60.1495 7.40396C60.8396 7.40396 61.4606 7.5326 62.0126 7.78988C62.5761 8.04716 63.0534 8.42139 63.4444 8.91256C63.8354 9.40373 64.1344 10.006 64.3414 10.7194C64.56 11.421 64.6692 12.2221 64.6692 13.1226C64.6692 14.257 64.5542 15.2627 64.3242 16.1398C64.1057 17.0052 63.7894 17.7303 63.3754 18.315C62.9729 18.9114 62.4784 19.3617 61.8919 19.6657C61.3053 19.9698 60.6498 20.1218 59.9253 20.1218C59.1548 20.1218 58.4417 19.9522 57.7862 19.6131C57.1307 19.274 56.5787 18.7886 56.1301 18.1571L57.4584 16.6836C57.7344 17.128 58.091 17.473 58.528 17.7186C58.965 17.9642 59.4423 18.087 59.9598 18.087C60.7303 18.087 61.3398 17.7771 61.7883 17.1572C62.2484 16.5374 62.4899 15.6603 62.5129 14.526C62.2829 14.947 61.9436 15.2803 61.4951 15.5258C61.0466 15.7714 60.5291 15.8942 59.9425 15.8942C59.333 15.8942 58.7695 15.789 58.252 15.5785C57.7344 15.368 57.2859 15.0756 56.9064 14.7014C56.5269 14.3272 56.2279 13.8886 56.0094 13.3857C55.7909 12.8712 55.6816 12.3215 55.6816 11.7368ZM60.1495 9.38619C59.839 9.38619 59.5458 9.45051 59.2698 9.57915C59.0052 9.6961 58.7695 9.86567 58.5625 10.0879C58.3555 10.2984 58.1887 10.5498 58.0622 10.8422C57.9472 11.1228 57.8897 11.421 57.8897 11.7368C57.8897 12.0526 57.9472 12.3508 58.0622 12.6314C58.1887 12.9004 58.3497 13.1402 58.5452 13.3507C58.7522 13.5612 58.9937 13.7249 59.2698 13.8418C59.5458 13.9588 59.839 14.0172 60.1495 14.0172C60.4601 14.0172 60.7533 13.9588 61.0293 13.8418C61.3053 13.7249 61.5411 13.5612 61.7366 13.3507C61.9436 13.1402 62.1046 12.9004 62.2196 12.6314C62.3461 12.3508 62.4094 12.0526 62.4094 11.7368C62.4094 11.421 62.3461 11.1228 62.2196 10.8422C62.1046 10.5498 61.9436 10.2984 61.7366 10.0879C61.5296 9.87736 61.2881 9.70779 61.0121 9.57915C60.7476 9.45051 60.4601 9.38619 60.1495 9.38619Z" fill="white"/>
<path d="M66.0125 11.7368C66.0125 11.1287 66.1275 10.5615 66.3575 10.0352C66.5875 9.50898 66.898 9.0529 67.289 8.66697C67.6915 8.26936 68.163 7.95945 68.7036 7.73725C69.2556 7.51506 69.8479 7.40396 70.4804 7.40396C71.1704 7.40396 71.7914 7.5326 72.3434 7.78988C72.907 8.04716 73.3842 8.42139 73.7752 8.91256C74.1663 9.40373 74.4653 10.006 74.6723 10.7194C74.8908 11.421 75 12.2221 75 13.1226C75 14.257 74.885 15.2627 74.655 16.1398C74.4365 17.0052 74.1203 17.7303 73.7062 18.315C73.3037 18.9114 72.8092 19.3617 72.2227 19.6657C71.6362 19.9698 70.9806 20.1218 70.2561 20.1218C69.4856 20.1218 68.7726 19.9522 68.117 19.6131C67.4615 19.274 66.9095 18.7886 66.461 18.1571L67.7893 16.6836C68.0653 17.128 68.4218 17.473 68.8588 17.7186C69.2958 17.9642 69.7731 18.087 70.2906 18.087C71.0612 18.087 71.6707 17.7771 72.1192 17.1572C72.5792 16.5374 72.8207 15.6603 72.8437 14.526C72.6137 14.947 72.2745 15.2803 71.8259 15.5258C71.3774 15.7714 70.8599 15.8942 70.2734 15.8942C69.6638 15.8942 69.1003 15.789 68.5828 15.5785C68.0653 15.368 67.6168 15.0756 67.2373 14.7014C66.8577 14.3272 66.5587 13.8886 66.3402 13.3857C66.1217 12.8712 66.0125 12.3215 66.0125 11.7368ZM70.4804 9.38619C70.1699 9.38619 69.8766 9.45051 69.6006 9.57915C69.3361 9.6961 69.1003 9.86567 68.8933 10.0879C68.6863 10.2984 68.5196 10.5498 68.3931 10.8422C68.278 11.1228 68.2205 11.421 68.2205 11.7368C68.2205 12.0526 68.278 12.3508 68.3931 12.6314C68.5196 12.9004 68.6806 13.1402 68.8761 13.3507C69.0831 13.5612 69.3246 13.7249 69.6006 13.8418C69.8766 13.9588 70.1699 14.0172 70.4804 14.0172C70.7909 14.0172 71.0842 13.9588 71.3602 13.8418C71.6362 13.7249 71.8719 13.5612 72.0674 13.3507C72.2744 13.1402 72.4355 12.9004 72.5505 12.6314C72.677 12.3508 72.7402 12.0526 72.7402 11.7368C72.7402 11.421 72.677 11.1228 72.5505 10.8422C72.4355 10.5498 72.2744 10.2984 72.0674 10.0879C71.8604 9.87736 71.6189 9.70779 71.3429 9.57915C71.0784 9.45051 70.7909 9.38619 70.4804 9.38619Z" fill="white"/>
<defs>
<linearGradient id="paint0_linear" x1="10.7576" y1="-0.327103" x2="10.7576" y2="24.7098" gradientUnits="userSpaceOnUse">
<stop stop-color="#FFE399"/>
<stop offset="0.2442" stop-color="#C0A45C"/>
<stop offset="0.6492" stop-color="#947642"/>
<stop offset="1" stop-color="#CEB364"/>
</linearGradient>
<linearGradient id="paint1_linear" x1="14.4355" y1="-0.259376" x2="14.4355" y2="24.7775" gradientUnits="userSpaceOnUse">
<stop stop-color="#FFE399"/>
<stop offset="0.2442" stop-color="#C0A45C"/>
<stop offset="0.6492" stop-color="#947642"/>
<stop offset="1" stop-color="#CEB364"/>
</linearGradient>
</defs>
</svg>
